<svg width="3000" height="3000" viewBox="0 0 3000 3000" fill="none" xmlns="http://www.w3.org/2000/svg" role="img" aria-label="AntSeed X profile logo on black">
  <rect width="3000" height="3000" fill="#000000"/>
  <g transform="translate(740 740) scale(19)">
    <ellipse cx="40" cy="22" rx="5" ry="5.5" fill="#1FD87A"/>
    <ellipse cx="40" cy="36" rx="7" ry="8" fill="#1FD87A"/>
    <ellipse cx="40" cy="55" rx="9" ry="12" fill="#1FD87A"/>
    <line x1="37" y1="17" x2="28" y2="6" stroke="#1FD87A" stroke-width="1.8" stroke-linecap="round"/>
    <line x1="43" y1="17" x2="52" y2="6" stroke="#1FD87A" stroke-width="1.8" stroke-linecap="round"/>
    <circle cx="28" cy="6" r="2.5" fill="#1FD87A"/>
    <circle cx="52" cy="6" r="2.5" fill="#1FD87A"/>
    <line x1="34" y1="30" x2="18" y2="22" stroke="#1FD87A" stroke-width="1.8" stroke-linecap="round"/>
    <line x1="46" y1="30" x2="62" y2="22" stroke="#1FD87A" stroke-width="1.8" stroke-linecap="round"/>
    <circle cx="18" cy="22" r="2.5" fill="#1FD87A"/>
    <circle cx="62" cy="22" r="2.5" fill="#1FD87A"/>
    <line x1="33" y1="38" x2="14" y2="40" stroke="#1FD87A" stroke-width="1.8" stroke-linecap="round"/>
    <line x1="47" y1="38" x2="66" y2="40" stroke="#1FD87A" stroke-width="1.8" stroke-linecap="round"/>
    <circle cx="14" cy="40" r="2.5" fill="#1FD87A"/>
    <circle cx="66" cy="40" r="2.5" fill="#1FD87A"/>
    <line x1="34" y1="52" x2="16" y2="60" stroke="#1FD87A" stroke-width="1.8" stroke-linecap="round"/>
    <line x1="46" y1="52" x2="64" y2="60" stroke="#1FD87A" stroke-width="1.8" stroke-linecap="round"/>
    <circle cx="16" cy="60" r="2.5" fill="#1FD87A"/>
    <circle cx="64" cy="60" r="2.5" fill="#1FD87A"/>
  </g>
</svg>
