<svg xmlns="http://www.w3.org/2000/svg" width="1500" height="500" viewBox="0 0 1500 500" role="img" aria-labelledby="title desc">
  <title id="title">AntSeed X banner</title>
  <desc id="desc">Dark soil banner with green pheromone rails, AntSeed wordmark, and subtle clay USDC economics accent.</desc>
  <defs>
    <linearGradient id="soil" x1="0" y1="0" x2="1" y2="1">
      <stop offset="0" stop-color="#070b09"/>
      <stop offset="0.52" stop-color="#0a0e14"/>
      <stop offset="1" stop-color="#070b09"/>
    </linearGradient>
    <radialGradient id="greenGlow" cx="18%" cy="20%" r="56%">
      <stop offset="0" stop-color="#1FD87A" stop-opacity="0.18"/>
      <stop offset="1" stop-color="#1FD87A" stop-opacity="0"/>
    </radialGradient>
    <radialGradient id="clayGlow" cx="86%" cy="42%" r="38%">
      <stop offset="0" stop-color="#e8a33d" stop-opacity="0.12"/>
      <stop offset="1" stop-color="#e8a33d" stop-opacity="0"/>
    </radialGradient>
    <pattern id="grid" width="50" height="50" patternUnits="userSpaceOnUse">
      <path d="M50 0H0V50" fill="none" stroke="#97ffc7" stroke-opacity="0.055" stroke-width="1"/>
    </pattern>
    <filter id="glow" x="-80%" y="-80%" width="260%" height="260%"><feGaussianBlur stdDeviation="10" result="b"/><feColorMatrix in="b" type="matrix" values="0 0 0 0 .121 0 0 0 0 .847 0 0 0 0 .478 0 0 0 .72 0" result="g"/><feMerge><feMergeNode in="g"/><feMergeNode in="SourceGraphic"/></feMerge></filter>
    <style>
      .display{font-family:Oxanium, system-ui, sans-serif;font-weight:700;letter-spacing:-.045em}.mono{font-family:'Share Tech Mono', Menlo, monospace;letter-spacing:.16em}
    </style>
  </defs>
  <rect width="1500" height="500" fill="url(#soil)"/>
  <rect width="1500" height="500" fill="url(#greenGlow)"/>
  <rect width="1500" height="500" fill="url(#clayGlow)"/>
  <rect width="1500" height="500" fill="url(#grid)"/>
  <rect x="76" y="72" width="1348" height="356" rx="34" fill="#fff" fill-opacity="0.025" stroke="#97ffc7" stroke-opacity="0.14"/>
  <g stroke="#97ffc7" stroke-width="4" stroke-linecap="round" stroke-dasharray="1 28" opacity="0.28">
    <path d="M90 150H1410"/><path d="M90 250H1410"/><path d="M90 350H1410"/>
  </g>
  <g filter="url(#glow)" transform="translate(205 250) scale(3.3)">
    <g stroke="#1FD87A" stroke-width="2.3" stroke-linecap="round"><path d="M-3-23L-14-38"/><path d="M3-23L14-38"/><path d="M-7-6L-28-18"/><path d="M7-6L28-18"/><path d="M-8 8L-33 11"/><path d="M8 8L33 11"/><path d="M-7 27L-30 39"/><path d="M7 27L30 39"/></g>
    <g fill="#1FD87A"><circle cx="-14" cy="-38" r="2.9"/><circle cx="14" cy="-38" r="2.9"/><circle cx="-28" cy="-18" r="2.9"/><circle cx="28" cy="-18" r="2.9"/><circle cx="-33" cy="11" r="2.9"/><circle cx="33" cy="11" r="2.9"/><circle cx="-30" cy="39" r="2.9"/><circle cx="30" cy="39" r="2.9"/><ellipse cx="0" cy="-22.5" rx="8" ry="8.5"/><ellipse cx="0" cy="0" rx="11" ry="12"/><ellipse cx="0" cy="29" rx="15" ry="19"/></g>
  </g>
  <g opacity="0.38" fill="#1FD87A"><circle cx="86" cy="132" r="7"/><circle cx="330" cy="374" r="6"/><circle cx="1310" cy="120" r="6"/><circle cx="1226" cy="375" r="7"/></g>
  <text x="420" y="232" class="display" font-size="106" fill="#edf6ee">ANT</text><text x="619" y="232" class="display" font-size="106" fill="#1FD87A">SEED</text>
  <text x="423" y="294" class="mono" font-size="23" fill="#97ffc7">THE OPEN MARKET FOR AI INFERENCE</text>
  <path d="M423 333H1035" stroke="#1FD87A" stroke-opacity="0.48" stroke-width="2"/>
  <g class="mono" font-size="17">
    <rect x="423" y="358" width="128" height="34" rx="17" fill="#1FD87A" fill-opacity="0.05" stroke="#97ffc7" stroke-opacity="0.18"/><text x="441" y="381" fill="#97aa9f">P2P</text>
    <rect x="573" y="358" width="128" height="34" rx="17" fill="#1FD87A" fill-opacity="0.05" stroke="#97ffc7" stroke-opacity="0.18"/><text x="591" y="381" fill="#97aa9f">PRIVATE</text>
    <rect x="723" y="358" width="128" height="34" rx="17" fill="#e8a33d" fill-opacity="0.08" stroke="#e8a33d" stroke-opacity="0.32"/><text x="741" y="381" fill="#e8a33d">USDC</text>
    <rect x="873" y="358" width="178" height="34" rx="17" fill="#1FD87A" fill-opacity="0.05" stroke="#97ffc7" stroke-opacity="0.18"/><text x="891" y="381" fill="#97aa9f">NO GATEKEEPERS</text>
  </g>
  <circle cx="1298" cy="250" r="96" fill="none" stroke="#e8a33d" stroke-opacity="0.1" stroke-width="2"/><circle cx="1298" cy="250" r="52" fill="none" stroke="#e8a33d" stroke-opacity="0.18" stroke-width="2"/><circle cx="1298" cy="250" r="17" fill="#e8a33d"/>
</svg>
